<svg width="32" height="32" viewBox="0 0 32 32" fill="none" xmlns="http://www.w3.org/2000/svg">
<path d="m19.3 20.7 1.4-1.4-3.7-3.7V11h-2v5.4l4.3 4.3ZM16 26a9.733 9.733 0 0 1-3.9-.788 10.092 10.092 0 0 1-3.175-2.137c-.9-.9-1.612-1.958-2.137-3.175A9.733 9.733 0 0 1 6 16a9.74 9.74 0 0 1 .788-3.9 10.091 10.091 0 0 1 2.137-3.175c.9-.9 1.958-1.613 3.175-2.138A9.743 9.743 0 0 1 16 6a9.74 9.74 0 0 1 3.9.787 10.105 10.105 0 0 1 3.175 2.138c.9.9 1.612 1.958 2.137 3.175A9.733 9.733 0 0 1 26 16a9.733 9.733 0 0 1-.788 3.9 10.092 10.092 0 0 1-2.137 3.175c-.9.9-1.958 1.612-3.175 2.137A9.733 9.733 0 0 1 16 26Zm0-2c2.217 0 4.104-.779 5.663-2.337C23.221 20.104 24 18.217 24 16s-.779-4.104-2.337-5.663C20.104 8.779 18.217 8 16 8s-4.104.779-5.662 2.337C8.779 11.896 8 13.783 8 16s.78 4.104 2.338 5.663C11.896 23.221 13.783 24 16 24Z" fill="#F2AA00"></path>
</svg>