<svg width="40" height="40" viewBox="0 0 40 40" fill="none" xmlns="http://www.w3.org/2000/svg">
<rect width="40" height="40" rx="8" fill="#fff"></rect>
<path d="M26.238 14.387a14.848 14.848 0 0 0-3.664-1.136.056.056 0 0 0-.059.028 10.33 10.33 0 0 0-.456.937 13.705 13.705 0 0 0-4.115 0 9.452 9.452 0 0 0-.464-.937.058.058 0 0 0-.058-.028c-1.286.221-2.516.61-3.664 1.136a.052.052 0 0 0-.024.021c-2.334 3.486-2.973 6.887-2.66 10.245a.062.062 0 0 0 .024.042 14.926 14.926 0 0 0 4.494 2.273.058.058 0 0 0 .064-.021c.346-.473.655-.972.92-1.496a.057.057 0 0 0-.032-.08 9.828 9.828 0 0 1-1.404-.668.058.058 0 0 1-.006-.096c.095-.07.189-.144.279-.219a.056.056 0 0 1 .058-.008c2.946 1.345 6.135 1.345 9.046 0a.056.056 0 0 1 .06.008 7.7 7.7 0 0 0 .279.219.058.058 0 0 1-.005.096 9.228 9.228 0 0 1-1.405.668.057.057 0 0 0-.03.08c.27.524.578 1.022.918 1.495.014.02.04.029.063.021a14.877 14.877 0 0 0 4.502-2.272.058.058 0 0 0 .023-.041c.376-3.883-.628-7.255-2.66-10.245a.046.046 0 0 0-.024-.022Zm-9.223 8.221c-.887 0-1.618-.814-1.618-1.814s.717-1.814 1.618-1.814c.908 0 1.632.821 1.618 1.814 0 1-.717 1.814-1.618 1.814Zm5.981 0c-.887 0-1.618-.814-1.618-1.814s.717-1.814 1.618-1.814c.908 0 1.632.821 1.618 1.814 0 1-.71 1.814-1.618 1.814Z" fill="#5865F2"></path>
</svg>