<svg width="40" height="40" viewBox="0 0 40 40" fill="none" xmlns="http://www.w3.org/2000/svg">
<path d="M18.774 14.195V11.28c0-.464-.216-.682-.66-.682h-.725v4.28h.726c.443 0 .66-.218.66-.682Z" fill="#FFF"></path>
<path d="M30.643 5H9.357C7.64 5 7 5.644 7 7.377v20.92c0 .198.01.378.028.549.038.379.047.748.396 1.165.038.038.396.312.396.312.189.095.32.161.537.256l10.474 4.413c.547.246.773.35 1.169.34.396.01.622-.084 1.169-.34l10.473-4.413c.217-.085.35-.161.538-.256 0 0 .358-.265.396-.312.349-.417.358-.786.396-1.165.018-.17.028-.35.028-.55V7.378C33 5.644 32.368 5 30.643 5ZM21.33 9.034h1.763v11.62H21.33V9.034Zm-.754 15.75.029.037.028.047.028.038.028-.038.029-.047.028-.038.028-.047.029-.038.028-.047.028-.038.028-.048.029-.038.018-.038.029-.047.028-.038.028-.047.029-.038.028-.047.028-.038.028-.048.057-.076.028-.047.029-.038.028-.047.028-.038.029-.047.018-.038.029-.038.028-.048.028-.038.029-.047.028-.038.028-.047.028-.038.029-.047.028-.038h.98v3.513l-.216.01h-.877v-2.074l-.028.037-.029.048-.056.076-.029.047-.056.076-.029.047-.084.114-.029.047-.056.076-.029.048-.056.075-.028.048-.02.038-.027.038-.029.047-.056.076-.029.047-.028.038-.019.038-.028.038-.028.047-.057.076-.019.048-.056.075-.029.048-.028.038h-.019l-.028-.048-.028-.038-.029-.047-.028-.038-.028-.047-.028-.038-.029-.048-.028-.037-.028-.048-.02-.038-.027-.047-.029-.038-.028-.047.047-.048-.028-.047-.029-.038-.028-.047-.028-.038-.028-.047-.029-.038-.018-.029-.029-.038-.028-.047-.028-.038-.029-.047-.028-.038-.028-.048-.02-.028-.027-.047-.029-.038-.028-.048-.028-.037-.029-.048-.028-.038v2.065h-.905v-3.514h.98l.029.038.028.047.029.038.028.048.028.038.028.047.029.038.028.047.057.076.028.047.028.038.029.048.028.038.028.047.057.076.028.047.028.038.029.048.028.037.028.048.028.038.02.047.027.038.02.038.028.047.028.038.028.047.029.038.018.047Zm-4.94-15.75h2.762c1.433 0 2.14.71 2.14 2.16v3.087c0 1.449-.707 2.159-2.14 2.159h-.999v4.214h-1.763V9.034Zm-4.798 0h3.921v1.61H12.6v3.286h2.074v1.61H12.6v3.504h2.187v1.61h-3.95V9.034Zm3.328 17.492-.029.019-.264.198-.141.086-.047.019-.048.028-.424.17-.235.048-.057.01-.047.009-.056.01-.047.009-.057.01h-.15l-.048-.01-.057-.01-.424-.085-.33-.133-.046-.028-.038-.019-.047-.028-.265-.2-.037-.037-.038-.029-.076-.075-.17-.228-.018-.038-.029-.047-.028-.038-.075-.19-.019-.038-.019-.047-.01-.047-.018-.048-.01-.047-.018-.047-.01-.047v-.048l-.01-.047v-.047l-.009-.048v-.407l.01-.057.028-.142.019-.047.01-.048.15-.378.028-.047.029-.038.018-.038.17-.228.038-.038.028-.038.076-.076.037-.028.038-.038.227-.17.141-.086.094-.038.047-.028.038-.019.094-.038.047-.01.048-.018.047-.01.047-.019.33-.066h.197l.114.019h.047l.047.01.056.009.283.057.047.019.047.01.038.018.047.02.085.037.047.019.047.028.048.02.037.028.047.028.038.029.047.028.151.114.038.038.038.028-.029.038-.037.038-.029.038-.037.038-.057.076-.038.037-.056.076-.038.038-.028.038-.038.038-.057.076-.037.038-.029.038-.037.038-.029.038-.037-.029-.038-.037-.19-.143-.046-.028-.114-.057-.094-.038-.188-.038-.113-.019H12.6l-.188.038-.095.038-.037.114-.048.019-.226.17-.028.038-.038.038-.085.114-.019.047-.028.038-.075.19-.02.094-.009.057v.35l.029.142.018.048.057-.02.038.096.028.047.047.076.057.075.037.038.029.038.188.142.236.095.141.029.057.009h.085l.113-.019.236-.048.047-.018.037-.02.047-.018.038-.02.038-.028v-.473h-.697v-.7h1.555v1.57Zm.377.416.037-.085.038-.095.038-.085.056-.142.02-.028.206-.52.038-.086.602-1.515.038-.085.188-.473.01-.047.15-.379.038-.085.019-.048h.886l.565 1.42.037.085.866 2.177.038.086-.094-.038h-.934l-.282-.71h-1.357l-.095.236-.037.086-.15.378h-.944l.02-.047h.003Zm5.383 5.92-4.94-1.706h10.077l-5.137 1.705Zm5.986-5.863h-2.79v-3.513h2.762v.795h-1.848v.578h1.66v.748h-1.66v.597h1.876v.795Zm-1.905-8.41v-7.5c0-1.449.708-2.159 2.14-2.159h.858c1.433 0 2.121.7 2.121 2.14v2.377H27.4v-2.272c0-.465-.217-.682-.66-.682h-.292c-.462 0-.679.217-.679.681v7.34c0 .464.217.682.68.682h.329c.443 0 .66-.218.66-.682V15.88h1.716v2.709c0 1.448-.707 2.159-2.14 2.159h-.868c-1.433 0-2.14-.71-2.14-2.16Zm5.27 7.501-.066-.057-.009.048-.01.056-.009.048-.019.047-.01.047-.037.095-.019.038-.019.047-.141.19-.104.104-.075.057-.038.019-.038.028-.047.029-.047.019-.047.028-.142.057v-.01l-.047.02-.047.009-.085.019-.188.038-.057.01-.047.009h-.188l-.047-.01h-.057l-.094-.019-.057-.01-.282-.056-.048-.02-.047-.009-.47-.189-.048-.028-.038-.029-.047-.028-.264-.199-.038-.038.028-.038.038-.038.028-.038.038-.038.057-.076.038-.038.028-.038.038-.037.028-.038.038-.038.056-.076.038-.038.028-.038.038-.038.028-.038.038.029.047.028.038.028.047.029.038.028.047.029.038.028.047.019.038.028.377.152.047.01.094.018.056.01.047.01h.048l.056.009h.104l.056-.01.142-.028.075-.038.038-.029.028-.038.02-.038.018-.047.01-.047v-.01l-.01-.056-.019-.048-.028-.038-.076-.057-.037-.019-.095-.037-.056-.029-.076-.019-.047-.019-.047-.01-.047-.018-.047-.01-.057-.019-.047-.01-.056-.018-.048-.01-.047-.018-.047-.01-.094-.038-.047-.01-.141-.056-.057-.019-.141-.057-.095-.056-.037-.029-.047-.028-.114-.085-.075-.076-.113-.152-.029-.047-.037-.076-.01-.048-.019-.038-.038-.189-.009-.057v-.113l.047-.237.02-.047.009-.048.056-.142.057-.094.056-.076.151-.152.151-.114.047-.028.048-.019.047-.028.188-.076.038-.01.377-.076h.207l.113.02h.047l.057.009.047.01.057.009.235.047.095.038.047.01.235.094.047.029.038.019.094.057.038.028.047.028.151.114-.113.152-.028.047-.198.266-.029.047-.056.076-.094.208-.029.038-.037-.028-.048-.029-.075-.056-.047-.02-.038-.028-.047-.019-.038-.019-.047-.019-.038-.018-.047-.02-.038-.018-.056-.02-.094-.037-.048-.01-.028.02-.188-.039h-.104l-.056.01-.095.019-.075.038-.047.038-.029.047-.018.047-.01.048v.01l.01.065.018.057.02.029.037.037.047.029.038.028.047.02.113.037.038.01.038.018.047.01.047.019.047.01.17.056.056.01.047.019.057.018.047.01.236.095.047.009.056.019.047.028.048.02.14.084.114.086.151.152.029.038.028.047.028.038.028.047.02.038.018.047.019.095.019.095.01.047.009.057v.114Z" fill="#FFF"></path>
<path d="m16.823 25.55-.019-.047-.056-.142-.02-.048-.037-.094-.019-.048-.056-.142-.02-.047-.037-.095-.019-.047-.056-.142-.02-.048-.056-.142-.019.048-.037.094-.02.048-.056.142-.019.047-.037.095-.02.047-.056.142-.019.048-.056.142-.019.047-.038.095-.019.047-.018.047h.81l.038-.047Z" fill="#FFF"></path>
</svg>