<svg width="40" height="40" viewBox="0 0 40 40" fill="none" xmlns="http://www.w3.org/2000/svg">
<rect width="40" height="40" rx="8" fill="#fff"></rect>
<g clip-path="url(#clip0_30_2934)">

<g clip-path="url(#clip1_30_2934)" fill="#B1155A">
<path d="M20 12.62c2.405 0 2.69.011 3.635.053.88.04 1.354.187 1.67.31.418.162.72.358 1.034.671.316.317.51.616.671 1.034.123.316.27.794.31 1.67.042.949.052 1.234.052 3.635 0 2.405-.01 2.69-.052 3.635-.04.879-.187 1.354-.31 1.67-.162.418-.358.72-.671 1.034-.317.316-.616.51-1.034.671-.316.123-.794.27-1.67.31-.95.042-1.234.052-3.635.052-2.405 0-2.69-.01-3.635-.052-.88-.04-1.354-.187-1.67-.31a2.784 2.784 0 0 1-1.034-.671 2.769 2.769 0 0 1-.671-1.034c-.123-.316-.27-.794-.31-1.67-.042-.95-.052-1.234-.052-3.635 0-2.405.01-2.69.053-3.635.038-.88.186-1.354.309-1.67.162-.418.358-.72.671-1.034.317-.316.616-.51 1.034-.671.316-.123.794-.27 1.67-.31.946-.042 1.23-.052 3.635-.052ZM20 11c-2.443 0-2.75.01-3.709.053-.956.042-1.614.197-2.183.418a4.393 4.393 0 0 0-1.596 1.04 4.41 4.41 0 0 0-1.04 1.593c-.222.573-.377 1.227-.42 2.184C11.012 17.25 11 17.556 11 20c0 2.443.01 2.75.053 3.709.042.956.197 1.614.418 2.183a4.393 4.393 0 0 0 1.04 1.596 4.4 4.4 0 0 0 1.593 1.037c.573.222 1.227.377 2.184.419.96.042 1.265.053 3.709.053 2.443 0 2.749-.011 3.709-.053.956-.042 1.613-.197 2.183-.419a4.4 4.4 0 0 0 1.592-1.037 4.4 4.4 0 0 0 1.037-1.592c.222-.573.377-1.227.419-2.184.042-.96.052-1.265.052-3.709 0-2.443-.01-2.749-.052-3.709-.043-.956-.197-1.613-.419-2.183a4.216 4.216 0 0 0-1.03-1.6 4.4 4.4 0 0 0-1.592-1.036c-.573-.222-1.227-.377-2.184-.419C22.75 11.011 22.444 11 20 11Z"></path>
<path d="M20 15.377a4.624 4.624 0 0 0 0 9.246 4.624 4.624 0 0 0 0-9.246Zm0 7.622A3 3 0 1 1 20 17a3 3 0 0 1 0 6Zm5.885-7.805a1.08 1.08 0 1 1-2.159 0 1.08 1.08 0 0 1 2.16 0Z"></path>
</g>

</g>
<defs>
<clipPath id="clip0_30_2934">
<path fill="#fff" transform="translate(11 11)" d="M0 0h18v18H0z"></path>
</clipPath>

<clipPath id="clip1_30_2934">
<path fill="#fff" transform="translate(11 11)" d="M0 0h18v18H0z"></path>
</clipPath>

<!-- <image id="icon-instagram-image" width="40" height="40"></image> -->
</defs>
</svg>