<?xml version="1.0" standalone="no"?>
<!DOCTYPE svg PUBLIC "-//W3C//DTD SVG 20010904//EN"
 "http://www.w3.org/TR/2001/REC-SVG-20010904/DTD/svg10.dtd">
<svg version="1.0" xmlns="http://www.w3.org/2000/svg"
 width="40.000000pt" height="40.000000pt" viewBox="0 0 40.000000 40.000000"
 preserveAspectRatio="xMidYMid meet">

<g transform="translate(0.000000,40.000000) scale(0.100000,-0.100000)"
fill="#000000" stroke="none">
<path d="M54 390 c-46 -19 -54 -46 -54 -185 l0 -130 112 10 c100 8 108 10 69
17 -63 11 -71 21 -71 94 0 81 12 94 90 94 78 0 90 -13 90 -95 0 -55 -3 -66
-22 -79 -22 -16 -22 -16 17 -16 22 0 57 3 78 6 l37 7 0 117 c0 168 4 164 -182
167 -78 1 -153 -2 -164 -7z"/>
<path d="M134 257 c-3 -8 -4 -39 -2 -68 l3 -54 65 0 65 0 0 65 0 65 -63 3
c-47 2 -64 -1 -68 -11z m126 -7 c0 -5 -4 -10 -10 -10 -5 0 -10 5 -10 10 0 6 5
10 10 10 6 0 10 -4 10 -10z m-30 -18 c18 -14 21 -25 16 -45 -9 -38 -53 -48
-78 -17 -23 28 -23 35 2 60 25 25 32 25 60 2z"/>
<path d="M180 215 c-10 -12 -10 -18 0 -30 16 -20 36 -19 44 1 6 16 -9 44 -24
44 -4 0 -13 -7 -20 -15z"/>
</g>
</svg>
