<svg width="40" height="40" viewBox="0 0 40 40" fill="none" xmlns="http://www.w3.org/2000/svg">

<g clip-path="url(#clip0_9858_104695)" fill="#FFF">
<path d="M25.65 22.06c-.46 0-.7.34-.71 1.02h1.4c0-.74-.19-1.02-.69-1.02Zm-1.44-4.32c.08-.06.16-.12.23-.19v-.99h-.69c-.35 0-.6.06-.76.19-.16.13-.24.33-.24.61 0 .44.2.66.61.66.09 0 .18 0 .28-.04.1-.02.2-.06.29-.1.1-.04.19-.09.28-.15v.01Zm-9.93 6.67c0 .32.15.48.45.48.28 0 .64-.16.81-.33v-.8h-.47c-.53 0-.79.21-.79.64v.01Zm.77-7.65c-.16.13-.24.33-.24.61 0 .44.2.66.61.66.09 0 .18 0 .28-.04.1-.02.2-.06.29-.1.1-.04.19-.09.28-.15.08-.06.16-.12.23-.19v-.99h-.69c-.35 0-.6.06-.76.19v.01Z"></path>
<path d="M32 4H8C5.79 4 4 5.79 4 8v24c0 2.21 1.79 4 4 4h24c2.21 0 4-1.79 4-4V8c0-2.21-1.79-4-4-4ZM20.85 14.27l.51.41-1.27 1.75 1.47 1.94-.51.43-1.73-2.33 1.53-2.2Zm-2.42-1.67.66-.16v6.25h-.66V12.6Zm-7.94 0 .66-.16v6.25h-.66V12.6Zm2.06 10.1c0 .62-.35 1.07-.92 1.27-.21.07-.46.12-.73.12-.24 0-.45-.02-.65-.08-.07.11-.11.21-.11.32 0 .25.14.33.53.33h.69c.1 0 .18.03.27.04.71.09 1.15.51 1.15 1.15 0 .72-.41 1.21-1.15 1.41-.26.07-.55.11-.88.11-1.01 0-1.64-.46-1.64-1.17 0-.32.14-.63.41-.91-.18-.14-.26-.33-.26-.59 0-.35.15-.66.46-.95-.34-.25-.51-.6-.51-1.05 0-.87.66-1.43 1.68-1.43.27 0 .51.05.73.13.08.03.16.05.24.09l.65-.68.47.87-.74.2c.18.24.3.48.3.82h.01Zm-1.17-6.23 1.53-2.2.51.41-1.27 1.75 1.47 1.94-.51.43-1.73-2.33Zm5.11 9.19h-.72l-.1-.36c-.41.34-.79.48-1.14.48-.75 0-1.17-.51-1.17-1.36 0-.91.56-1.39 1.6-1.39h.58v-.14c0-.48-.24-.7-.65-.7-.31 0-.72.11-1.05.29l-.28-.78c.36-.29.92-.48 1.42-.48.98 0 1.52.59 1.52 1.7v2.75l-.01-.01Zm.64-7.13h-.49l-.08-.46c-.2.17-.41.3-.63.4-.22.09-.43.14-.64.14-.35 0-.63-.11-.82-.32-.2-.21-.3-.51-.3-.88 0-.43.13-.76.4-.98.26-.22.65-.34 1.16-.34h.76v-.27c0-.65-.27-.98-.81-.98-.17 0-.35.02-.54.08-.19.05-.36.12-.52.19l-.2-.5c.2-.12.41-.21.64-.27.23-.06.45-.1.66-.1.93 0 1.39.53 1.39 1.6v2.7l.02-.01Zm6 7.05h-1.06v-2.72c0-.47-.12-.68-.59-.68-.19 0-.42.05-.59.12v3.28h-1.06v-2.72c0-.47-.12-.68-.59-.68-.19 0-.41.05-.58.12v3.28h-1.07v-4.25h.74l.15.42c.32-.34.77-.55 1.2-.55.48 0 .82.18 1.02.55.32-.35.79-.55 1.21-.55.81 0 1.22.54 1.22 1.6v2.78Zm-.72-7.3c-.2-.21-.3-.51-.3-.88 0-.43.13-.76.4-.98.26-.22.65-.34 1.16-.34h.76v-.27c0-.65-.27-.98-.81-.98-.17 0-.35.02-.54.08-.19.05-.36.12-.52.19l-.2-.5c.2-.12.41-.21.64-.27.23-.06.45-.1.66-.1.93 0 1.39.53 1.39 1.6v2.7h-.49l-.08-.46c-.2.17-.41.3-.63.4-.22.09-.43.14-.64.14-.35 0-.63-.11-.82-.32l.02-.01Zm4.92 5.59h-2.39c.05.7.39.98 1.07.98.27 0 .76-.12 1.02-.25l.23.79c-.33.2-.95.37-1.38.37-1.34 0-2.03-.78-2.03-2.28 0-1.5.68-2.29 1.83-2.29 1.09 0 1.68.76 1.68 2.15 0 .2-.02.43-.04.52l.01.01Zm-.88-5.83c-.31-.38-.47-.91-.47-1.61 0-.7.16-1.25.47-1.63.31-.38.74-.57 1.28-.57s.97.19 1.29.57c.32.38.47.93.47 1.63 0 .7-.15 1.24-.46 1.61-.31.38-.74.56-1.29.56s-.97-.19-1.29-.56Zm2.91 7.74c-.45 0-.99-.12-1.44-.31l.2-.88c.37.13.95.29 1.23.29.35 0 .53-.13.53-.38 0-.22-.12-.35-.74-.6-.83-.32-1.1-.62-1.1-1.37 0-.75.59-1.32 1.45-1.32.46 0 .91.12 1.34.34l-.28.83c-.26-.15-.68-.27-.97-.27-.34 0-.54.14-.54.4 0 .25.18.36.75.58.81.31 1.1.68 1.1 1.31 0 .88-.51 1.38-1.52 1.38h-.01Z"></path>
<path d="M27.75 14.8c-.35 0-.61.14-.79.42-.18.28-.28.68-.28 1.22 0 .54.09.93.28 1.2.18.27.45.4.79.4s.62-.13.8-.4c.18-.27.28-.67.28-1.2 0-.53-.09-.94-.28-1.22-.18-.28-.45-.42-.8-.42Zm-16.86 7.27c-.48 0-.69.18-.69.6s.2.61.69.61c.49 0 .69-.2.69-.61s-.21-.6-.69-.6Zm-.06 4.46c.4 0 .65-.08.8-.23.09-.09.15-.21.15-.37 0-.13-.06-.24-.15-.31a.699.699 0 0 0-.44-.13h-1.04c-.09.15-.13.31-.13.46 0 .38.29.58.81.58Z"></path>
</g>

<defs>
<clipPath id="clip0_9858_104695">
<path fill="#fff" transform="translate(4 4)" d="M0 0h32v32H0z"></path>
</clipPath>
</defs>

</svg>