<svg width="40" height="40" viewBox="0 0 40 40" fill="none" xmlns="http://www.w3.org/2000/svg">
<rect width="40" height="40" rx="8" fill="#fff"></rect>

<g clip-path="url(#clip0_2962_60218)">
<g clip-path="url(#clip1_2962_60218)">
<path d="M18.601 11.375h4.249c.06 0 .116.023.161.064a.232.232 0 0 1 .064.162c-.06 3.572-3.559 4.145-3.596 4.149h-4.523a.219.219 0 0 1-.221-.241c.3-3.58 3.829-4.127 3.866-4.134Zm7.748 11.472h-1.77c-.341 1.897-1.662 5.778-6.728 5.778-6.712 0-6.851-6.8-6.851-6.8v-4.084c0-.125.101-.223.221-.223H26.35A2.661 2.661 0 0 1 29 20.185a2.661 2.661 0 0 1-2.651 2.666v-.004Zm-.064-3.975a1.29 1.29 0 0 0-1.286 1.294c0 .713.577 1.293 1.286 1.293.709 0 1.286-.58 1.286-1.293s-.577-1.294-1.286-1.294Z" fill="#00C73C"></path>
</g>
</g>

<defs>
<clipPath id="clip0_2962_60218">
<path fill="#fff" transform="translate(11 11)" d="M0 0h18v18H0z"></path>
</clipPath>

<clipPath id="clip1_2962_60218">
<path fill="#fff" transform="translate(11 11.375)" d="M0 0h18v17.25H0z"></path>
</clipPath>
</defs>
</svg>