<svg width="40" height="40" viewBox="0 0 40 40" fill="none" xmlns="http://www.w3.org/2000/svg">
<path d="M23.25 13.872v7.5c3.248 1.527 5.805-.001 5.805-4.032s-1.499-5.954-5.91-7.429C21.405 9.35 18.181 8.4 15.96 8v22.394L21.177 32V13.224c0-.885.406-1.473 1.057-1.27.85.229 1.017 1.043 1.017 1.918ZM4.608 25.458c-1.15.834-.73 2.277 1.793 2.96a17.2 17.2 0 0 0 8.03.627c.168-.028.354-.056.52-.082V26.33l-2.583.906c-.953.341-2.338.41-3.118.156-.767-.244-.624-.71.328-1.04l5.373-1.872v-2.947l-7.474 2.59s-1.807.573-2.869 1.334Z" fill="#FFF"></path>
<path d="M33.603 23.73c-2.184-.8-4.964-1.072-7.23-.83-2.27.239-3.885.794-3.885.794l-.319.103v3.05l5.577-1.912c.957-.334 2.349-.405 3.128-.157.767.244.622.708-.326 1.049l-8.379 2.899v2.933l11.385-3.975s1.531-.552 2.162-1.315c.623-.771.347-1.879-2.113-2.638Zm.453 5.86c-.677 0-1.225.531-1.225 1.189 0 .317.127.611.355.837a1.258 1.258 0 0 0 1.73 0 1.168 1.168 0 0 0 0-1.678 1.214 1.214 0 0 0-.86-.348Zm0 2.169a1.05 1.05 0 0 1-.725-.286.965.965 0 0 1-.294-.695c0-.27.104-.518.294-.702a1.042 1.042 0 0 1 1.439 0 .956.956 0 0 1 .295.702c0 .542-.452.98-1.009.98Z" fill="#FFF"></path>
<path d="M34.613 31.27a.578.578 0 0 1-.01-.1l-.005-.168c-.003-.078-.018-.139-.052-.175-.017-.029-.047-.047-.075-.067a.768.768 0 0 0 .1-.104.377.377 0 0 0 .054-.199.333.333 0 0 0-.202-.326.682.682 0 0 0-.257-.045h-.632v1.323h.241v-.54h.368c.068 0 .114.01.148.02.046.029.07.071.073.144l.012.206.01.108.018.046.005.015h.264v-.076l-.017-.009c-.018-.005-.032-.023-.043-.053Zm-.285-.65a.317.317 0 0 1-.18.046h-.374v-.372h.396a.37.37 0 0 1 .133.022c.054.026.082.079.082.157 0 .075-.018.123-.057.148Z" fill="#FFF"></path>
</svg>