<?xml version="1.0" standalone="no"?>
<!DOCTYPE svg PUBLIC "-//W3C//DTD SVG 20010904//EN"
 "http://www.w3.org/TR/2001/REC-SVG-20010904/DTD/svg10.dtd">
<svg version="1.0" xmlns="http://www.w3.org/2000/svg"
 width="35pt" height="35pt" viewBox="0 0 577.000000 433.000000"
 preserveAspectRatio="xMidYMid meet">

<g transform="translate(0.000000,433.000000) scale(0.100000,-0.100000)"
fill="#FFF" stroke="none">
<path d="M800 3675 c-163 -46 -260 -173 -260 -340 0 -95 27 -168 85 -232 163
-182 461 -143 571 74 40 81 46 200 13 288 -59 157 -248 254 -409 210z"/>
<path d="M2684 3561 c-97 -24 -167 -83 -213 -181 l-26 -55 0 -1160 0 -1160 33
-67 c35 -72 77 -113 152 -150 l45 -23 1170 0 1170 0 46 21 c67 31 124 87 156
152 l28 57 3 522 c3 512 2 523 -18 563 -27 54 -72 80 -135 80 -57 0 -104 -24
-132 -67 -16 -25 -18 -65 -23 -473 l-5 -445 -24 -34 c-13 -18 -42 -42 -65 -52
-39 -18 -86 -19 -1000 -19 -950 0 -960 0 -1002 21 -26 12 -53 36 -66 57 l-23
37 0 980 0 980 23 37 c13 21 40 45 66 57 41 20 58 21 468 21 424 0 425 0 458
23 53 35 72 69 73 124 1 66 -26 112 -83 141 -44 22 -45 22 -545 21 -275 -1
-514 -4 -531 -8z"/>
<path d="M4255 3556 c-86 -39 -119 -139 -72 -220 40 -71 62 -76 309 -76 120 0
218 -3 218 -8 0 -4 -322 -329 -716 -722 -413 -413 -722 -729 -730 -747 -21
-47 -17 -91 11 -138 38 -66 117 -92 192 -64 16 5 348 330 751 732 l722 722 0
-220 c0 -195 2 -224 19 -255 56 -106 224 -103 275 4 15 32 16 83 14 470 -3
421 -4 435 -24 462 -11 15 -33 37 -48 48 -27 20 -41 21 -459 23 -345 2 -438 0
-462 -11z"/>
<path d="M826 2509 c-106 -17 -206 -92 -256 -194 -22 -43 -25 -64 -25 -150 0
-91 3 -105 29 -158 135 -266 532 -246 636 31 30 79 26 205 -9 277 -71 142
-217 218 -375 194z"/>
<path d="M826 1339 c-107 -17 -206 -92 -256 -194 -36 -73 -40 -198 -9 -280 30
-82 112 -163 194 -195 81 -30 178 -30 260 1 82 31 163 112 194 194 31 82 27
207 -8 280 -70 142 -220 220 -375 194z"/>
</g>
</svg>
