<svg width="40" height="40" viewBox="0 0 40 40" xmlns="http://www.w3.org/2000/svg">
<path d="M19.976 6C12.608 6 6.573 11.733 6 19.017l7.517 3.136a3.917 3.917 0 0 1 2.455-.69l3.343-4.89v-.069c0-2.942 2.372-5.337 5.288-5.337 2.917 0 5.289 2.395 5.289 5.338 0 2.942-2.372 5.337-5.288 5.337-.04 0-.08 0-.12-.002l-4.769 3.432c.003.064.006.128.006.19 0 2.21-1.782 4.007-3.97 4.007-1.921 0-3.529-1.384-3.892-3.217L6.482 24.01c1.665 5.94 7.074 10.296 13.494 10.296C27.722 34.305 34 27.968 34 20.152 34 12.337 27.722 6 19.976 6Zm-5.187 21.474-1.723-.719a2.973 2.973 0 0 0 1.535 1.474 2.972 2.972 0 0 0 3.895-1.619 3.014 3.014 0 0 0 .005-2.3 2.975 2.975 0 0 0-1.609-1.631 2.946 2.946 0 0 0-2.196-.034l1.78.743a2.22 2.22 0 0 1 1.18 2.894 2.186 2.186 0 0 1-2.867 1.192Zm13.339-10.97c0-1.96-1.582-3.556-3.524-3.556-1.943 0-3.525 1.596-3.525 3.557 0 1.96 1.581 3.556 3.525 3.556 1.943 0 3.524-1.596 3.524-3.556Zm-6.166-.005c0-1.476 1.186-2.671 2.647-2.671 1.461 0 2.648 1.195 2.648 2.67 0 1.476-1.186 2.672-2.648 2.672-1.462 0-2.647-1.196-2.647-2.671Z" fill="#FFF"></path>
</svg>