<svg width="40" height="40" viewBox="0 0 40 40" fill="none" xmlns="http://www.w3.org/2000/svg">
<rect width="40" height="40" rx="8" fill="#FE2C55"></rect>
<path d="M25.433 14.607A4.304 4.304 0 0 1 23.483 11h-3.084v12.401a2.607 2.607 0 0 1-2.593 2.505 2.603 2.603 0 0 1 0-5.205 2.6 2.6 0 0 1 .766.12v-3.157a5.702 5.702 0 0 0-.766-.056c-3.136 0-5.68 2.557-5.68 5.696 0 1.927.96 3.634 2.421 4.665A5.637 5.637 0 0 0 17.798 29c3.132 0 5.677-2.554 5.677-5.696v-6.289a7.325 7.325 0 0 0 4.29 1.384v-3.094c-.86 0-1.663-.259-2.336-.697h.004Z" fill="#FFF"></path>
</svg>