<svg width="20pt" height="20pt" viewBox="0 0 123 117" xmlns="http://www.w3.org/2000/svg">
<g fill-rule="nonzero" fill="#FFF">
<path d="M61.3 65.6c18 0 32.6-14.6 32.6-32.6S79.3.5 61.3.5 28.7 15.1 28.7 33s14.6 32.6 32.6 32.6Zm0-56.6c13.2 0 24 10.8 24 24s-10.8 24-24 24-24-10.8-24-24 10.8-24 24-24Z" fill="#FFF" class="fill-17ab13"></path>
<path d="M4.9 116.5h113.2c2.4 0 4.3-1.9 4.3-4.3 0-22.5-18.3-40.9-40.9-40.9h-40C19 71.3.6 89.6.6 112.2c0 2.4 1.9 4.3 4.3 4.3Zm36.6-36.6h40c16.4 0 29.9 12.2 32 28H9.5c2.1-15.7 15.6-28 32-28Z" fill="#FFF" class="fill-4a4a4a"></path>
</g>
</svg>