<svg width="40" height="40" viewBox="0 0 40 40" fill="none" xmlns="http://www.w3.org/2000/svg">
<path d="m10.178 10.026-.014.011v.002A13.953 13.953 0 0 0 6 19.999a13.94 13.94 0 0 0 2.862 8.48c.019.024.048.037.075.024.025-.015.026-.046.016-.073-1.067-3.3 4.388-11.298 7.207-14.651.01-.012.021-.025.021-.041 0-.02-.013-.034-.027-.046-4.741-4.719-6.007-3.64-5.99-3.655m19.66-.011.013.011v.002A13.951 13.951 0 0 1 34 19.999a13.94 13.94 0 0 1-2.862 8.48c-.017.024-.048.037-.075.024-.023-.015-.025-.046-.016-.073 1.067-3.3-4.384-11.304-7.201-14.659-.01-.011-.021-.025-.021-.04 0-.02.012-.035.026-.046 4.743-4.72 6-3.633 5.985-3.648M20 6c2.824 0 5.149.774 7.292 2.049.027.013.034.043.024.07-.01.024-.04.03-.068.023-2.71-.586-6.83 1.756-7.219 1.99a.052.052 0 0 1-.03.011.053.053 0 0 1-.03-.011c-1.034-.594-4.842-2.59-7.24-1.975-.027.005-.056.001-.068-.026a.056.056 0 0 1 .024-.069C14.829 6.774 17.183 6 20 6Zm0 11.228c.016 0 .034.013.044.022 4.19 3.185 11.36 11.06 9.17 13.287l.003-.003-.001.003h-.003A13.943 13.943 0 0 1 20 34a13.951 13.951 0 0 1-9.216-3.463l-.003-.003.003.003c-2.185-2.227 4.984-10.102 9.169-13.287.012-.009.03-.022.049-.022Z" fill="#FFF"></path>
</svg>