<svg width="40" height="40" viewBox="0 0 40 40" fill="none" xmlns="http://www.w3.org/2000/svg">
<rect width="40" height="40" rx="8" fill="#fff"></rect>
<path d="M28.82 16.4s-.175-1.24-.716-1.786c-.686-.717-1.452-.72-1.804-.763-2.517-.183-6.297-.183-6.297-.183h-.006s-3.78 0-6.297.183c-.352.042-1.118.046-1.803.763-.542.545-.714 1.786-.714 1.786S11 17.86 11 19.315v1.364c0 1.455.18 2.914.18 2.914s.175 1.241.713 1.786c.685.717 1.585.693 1.986.77 1.442.137 6.121.18 6.121.18s3.783-.008 6.3-.187c.352-.042 1.118-.046 1.803-.763.542-.545.718-1.786.718-1.786S29 22.138 29 20.68v-1.364c0-1.456-.18-2.915-.18-2.915Zm-10.68 5.934v-5.058l4.862 2.538-4.862 2.52Z" fill="red"></path>
</svg>